<svg width="16" height="16" viewBox="0 0 16 16" fill="none" xmlns="http://www.w3.org/2000/svg">
<path d="M8.002 0H7.998C3.587 0 0 3.588 0 8C0 9.75 0.564 11.372 1.523 12.689L0.526 15.661L3.601 14.678C4.866 15.516 6.375 16 8.002 16C12.413 16 16 12.411 16 8C16 3.589 12.413 0 8.002 0Z" fill="#762126"/>
<path d="M12.6569 11.2971C12.4639 11.8421 11.6979 12.2941 11.0869 12.4261C10.6689 12.5151 10.1229 12.5861 8.28493 11.8241C5.93393 10.8501 4.41993 8.46106 4.30193 8.30606C4.18893 8.15106 3.35193 7.04106 3.35193 5.89306C3.35193 4.74506 3.93493 4.18606 4.16993 3.94606C4.36293 3.74906 4.68193 3.65906 4.98793 3.65906C5.08693 3.65906 5.17593 3.66406 5.25593 3.66806C5.49093 3.67806 5.60893 3.69206 5.76393 4.06306C5.95693 4.52806 6.42693 5.67606 6.48293 5.79406C6.53993 5.91206 6.59693 6.07206 6.51693 6.22706C6.44193 6.38706 6.37593 6.45806 6.25793 6.59406C6.13993 6.73006 6.02793 6.83406 5.90993 6.98006C5.80193 7.10706 5.67993 7.24306 5.81593 7.47806C5.95193 7.70806 6.42193 8.47506 7.11393 9.09106C8.00693 9.88606 8.73093 10.1401 8.98993 10.2481C9.18293 10.3281 9.41293 10.3091 9.55393 10.1591C9.73293 9.96606 9.95393 9.64606 10.1789 9.33106C10.3389 9.10506 10.5409 9.07706 10.7529 9.15706C10.9689 9.23206 12.1119 9.79706 12.3469 9.91406C12.5819 10.0321 12.7369 10.0881 12.7939 10.1871C12.8499 10.2861 12.8499 10.7511 12.6569 11.2971Z" fill="#FAFAFA"/>
</svg>
