<svg width="16" height="16" viewBox="0 0 16 16" fill="none" xmlns="http://www.w3.org/2000/svg">
<mask id="mask0_915_960" style="mask-type:alpha" maskUnits="userSpaceOnUse" x="0" y="0" width="16" height="16">
<circle cx="8" cy="8" r="8" fill="#D9D9D9"/>
</mask>
<g mask="url(#mask0_915_960)">
<path d="M5.2222 15.8611V12.0278L2.36108 14.1389C3.16664 14.8889 4.13886 15.4722 5.2222 15.8611Z" fill="#2A5F9E"/>
<path d="M10.7778 15.8611C11.8611 15.4722 12.8333 14.8889 13.6389 14.1389L10.7778 12V15.8611Z" fill="#2A5F9E"/>
<path d="M0.138863 10.7778C0.222196 11.0555 0.333307 11.3055 0.472196 11.5833L1.55553 10.7778H0.138863Z" fill="#2A5F9E"/>
<path d="M14.4444 10.7778L15.5278 11.5833C15.6389 11.3333 15.75 11.0555 15.8611 10.7778H14.4444Z" fill="#2A5F9E"/>
<path d="M5.63888 9.66663H-0.166672C-0.0833384 10.0555 0.0277727 10.4166 0.138884 10.7777H1.55555L0.472217 11.5833C0.694439 12.0555 0.944439 12.4722 1.24999 12.8888L4.11111 10.7777H5.22222V11.3333L1.97222 13.7222L2.36111 14.1111L5.22222 12.0277V15.8611C5.58333 16 5.94444 16.0833 6.33333 16.1666V9.66663H5.63888Z" fill="white"/>
<path d="M16.1667 9.66663H9.66666V16.1666C10.0555 16.0833 10.4167 15.9722 10.7778 15.8611V12.0277L13.6389 14.1111C14.0278 13.75 14.3611 13.3611 14.6944 12.9444L11.7222 10.7777H13.6111L15.3055 12.0277C15.3889 11.8888 15.4722 11.7222 15.5278 11.5833L14.4444 10.7777H15.8611C15.9722 10.4166 16.0833 10.0555 16.1667 9.66663Z" fill="white"/>
<path d="M1.24998 12.8889C1.4722 13.1944 1.69442 13.4722 1.94442 13.75L5.2222 11.3611V10.8055H4.11109L1.24998 12.8889Z" fill="#ED4C5C"/>
<path d="M11.75 10.7778L14.7222 12.9444C14.8333 12.8055 14.9167 12.6667 15.0278 12.5278C15.0555 12.5 15.0555 12.4722 15.0833 12.4722C15.1667 12.3333 15.2778 12.1667 15.3611 12.0278L13.6111 10.7778H11.75Z" fill="#ED4C5C"/>
<path d="M10.7778 0.138916V3.97225L13.6389 1.86114C12.8333 1.11114 11.8611 0.527805 10.7778 0.138916Z" fill="#2A5F9E"/>
<path d="M5.2222 0.138916C4.13886 0.527805 3.16664 1.11114 2.36108 1.86114L5.2222 4.00003V0.138916Z" fill="#2A5F9E"/>
<path d="M15.8611 5.22224C15.7778 4.94446 15.6666 4.69446 15.5278 4.41669L14.4444 5.22224H15.8611Z" fill="#2A5F9E"/>
<path d="M1.55553 5.22224L0.472196 4.41669C0.361085 4.69446 0.249974 4.94446 0.138863 5.22224H1.55553Z" fill="#2A5F9E"/>
<path d="M10.3611 6.33331H16.1389C16.0555 5.94442 15.9444 5.58331 15.8333 5.2222H14.4167L15.5 4.41665C15.2778 3.94442 15.0278 3.52776 14.7222 3.11109L11.8889 5.2222H10.7778V4.66665L14.0278 2.27776L13.6389 1.88887L10.7778 3.9722V0.138869C10.4167 -2.02954e-05 10.0555 -0.0833537 9.66666 -0.166687V6.33331H10.3611Z" fill="white"/>
<path d="M-0.166672 6.33331H6.33333V-0.166687C5.94444 -0.0833537 5.58333 0.0277575 5.22222 0.138869V3.9722L2.36111 1.88887C1.97222 2.24998 1.63888 2.63887 1.30555 3.05554L4.27777 5.2222H2.38888L0.694439 3.9722C0.611106 4.11109 0.527773 4.27776 0.472217 4.41665L1.55555 5.2222H0.138884C0.0277727 5.58331 -0.0833384 5.94442 -0.166672 6.33331Z" fill="white"/>
<path d="M14.75 3.11099C14.5278 2.80543 14.3055 2.52766 14.0555 2.24988L10.7778 4.63877V5.19432H11.8889L14.75 3.11099Z" fill="#ED4C5C"/>
<path d="M4.24999 5.22221L1.30555 3.05554C1.19443 3.19443 1.1111 3.33332 0.99999 3.47221C0.972212 3.49999 0.972212 3.52776 0.944434 3.52776C0.861101 3.66665 0.74999 3.83332 0.666656 3.97221L2.3611 5.22221H4.24999Z" fill="#ED4C5C"/>
<path d="M16.1667 6.33329H9.66666V-0.166707C9.13888 -0.277818 8.58332 -0.333374 7.99999 -0.333374C7.41666 -0.333374 6.8611 -0.277818 6.33332 -0.166707V6.33329H-0.166677C-0.277788 6.86107 -0.333344 7.41663 -0.333344 7.99996C-0.333344 8.58329 -0.277788 9.13885 -0.166677 9.66663H6.33332V16.1666C6.8611 16.2777 7.41666 16.3333 7.99999 16.3333C8.58332 16.3333 9.13888 16.2777 9.66666 16.1666V9.66663H16.1667C16.2778 9.13885 16.3333 8.58329 16.3333 7.99996C16.3333 7.41663 16.2778 6.86107 16.1667 6.33329Z" fill="#ED4C5C"/>
</g>
</svg>
