<svg width="16" height="16" viewBox="0 0 16 16" fill="none" xmlns="http://www.w3.org/2000/svg">
<path d="M8 16C12.4183 16 16 12.4183 16 8C16 3.58172 12.4183 0 8 0C3.58172 0 0 3.58172 0 8C0 12.4183 3.58172 16 8 16Z" fill="#762126"/>
<path d="M3.66057 7.82662L11.3739 4.85262C11.7319 4.72329 12.0446 4.93996 11.9286 5.48129L11.9292 5.48062L10.6159 11.668C10.5186 12.1066 10.2579 12.2133 9.89323 12.0066L7.89323 10.5326L6.92857 11.462C6.8219 11.5686 6.7319 11.6586 6.52523 11.6586L6.66723 9.62329L10.3739 6.27462C10.5352 6.13262 10.3379 6.05262 10.1252 6.19396L5.54457 9.07796L3.5699 8.46196C3.14123 8.32596 3.1319 8.03329 3.66057 7.82662Z" fill="white"/>
</svg>
