<svg width="16" height="16" viewBox="0 0 16 16" fill="none" xmlns="http://www.w3.org/2000/svg">
<g clip-path="url(#clip0_915_913)">
<path d="M15.4366 9.26196C15.9139 5.24396 15.2072 2.70729 13.9326 1.55996L13.9332 1.55929C11.8759 -0.400045 4.9279 -0.690045 2.46657 1.64729C1.36123 2.79062 0.9719 4.46862 0.929234 6.54596C0.886567 8.62396 0.8359 12.5166 4.46323 13.5726H4.46657L4.46323 15.1853C4.46323 15.1853 4.43857 15.8386 4.8559 15.97C5.33323 16.1246 5.54923 15.8213 7.0339 14.048C9.51657 14.2633 11.4232 13.77 11.6399 13.698C12.1412 13.53 14.9779 13.1546 15.4366 9.26196ZM7.27857 12.9133C7.27857 12.9133 5.70723 14.8726 5.21857 15.3813C5.05857 15.5466 4.88323 15.5313 4.8859 15.2033C4.8859 14.988 4.8979 12.526 4.8979 12.526C1.82257 11.6446 2.0039 8.32996 2.03723 6.59596C2.07057 4.86129 2.3879 3.44062 3.3239 2.48396C5.48323 0.459289 11.5746 0.911955 13.1266 2.37062C15.0239 4.05262 14.3486 8.80462 14.3526 8.96662C13.9626 12.216 11.6639 12.422 11.2412 12.5626C11.0606 12.6226 9.3839 13.054 7.27857 12.9133Z" fill="#762126"/>
<path d="M8.14793 2.86462C7.89126 2.86462 7.89126 3.26462 8.14793 3.26796C10.1393 3.28329 11.7793 4.67129 11.7973 7.21729C11.7973 7.48596 12.1906 7.48262 12.1873 7.21396H12.1866C12.1653 4.47062 10.3746 2.87996 8.14793 2.86462Z" fill="#762126"/>
<path d="M10.7674 6.7953C10.7614 7.06063 11.154 7.0733 11.1574 6.80463C11.19 5.29196 10.2574 4.04596 8.50468 3.91463C8.24802 3.89596 8.22135 4.2993 8.47735 4.31796C9.99735 4.4333 10.798 5.47063 10.7674 6.7953Z" fill="#762126"/>
<path d="M10.3472 8.51591C10.0179 8.32524 9.68252 8.44391 9.54385 8.63124L9.25385 9.00657C9.10652 9.19724 8.83119 9.17191 8.83119 9.17191C6.82186 8.64057 6.28452 6.53791 6.28452 6.53791C6.28452 6.53791 6.25986 6.25324 6.44386 6.10057L6.80652 5.80057C6.98786 5.65657 7.10252 5.30991 6.91786 4.96924C6.42452 4.07791 6.09319 3.77057 5.92452 3.53457C5.74719 3.31257 5.48052 3.26257 5.20319 3.41257H5.19719C4.62052 3.74991 3.98919 4.38124 4.19119 5.03124C4.53586 5.71657 5.16919 7.90124 7.18785 9.55191C8.13652 10.3326 9.63785 11.1326 10.2752 11.3172L10.2812 11.3266C10.9092 11.5359 11.5199 10.8799 11.8459 10.2859V10.2812C11.9905 9.99391 11.9425 9.72191 11.7312 9.54391C11.3565 9.17857 10.7912 8.77524 10.3472 8.51591Z" fill="#762126"/>
<path d="M8.77931 5.40266C9.41998 5.44 9.73064 5.77466 9.76398 6.462C9.77598 6.73066 10.166 6.712 10.154 6.44333C10.1113 5.546 9.64331 5.04599 8.80064 4.99933C8.54397 4.98399 8.51997 5.38733 8.77931 5.40266Z" fill="#762126"/>
</g>
<defs>
<clipPath id="clip0_915_913">
<rect width="16" height="16" fill="white"/>
</clipPath>
</defs>
</svg>
